<svg width="12" height="6" viewBox="0 0 12 6" fill="none" xmlns="http://www.w3.org/2000/svg">
<path fill-rule="evenodd" clip-rule="evenodd" d="M0 3C0 2.85082 0.0651893 2.70775 0.181227 2.60226C0.297264 2.49677 0.454644 2.43751 0.618746 2.43751H9.00543L7.27294 0.975034C7.21336 0.924804 7.16524 0.864397 7.13133 0.797261C7.09742 0.730125 7.07839 0.657575 7.07533 0.583753C7.07227 0.509932 7.08523 0.436285 7.11347 0.367017C7.14171 0.297749 7.18469 0.234216 7.23994 0.180047C7.35153 0.0706469 7.50636 0.00602612 7.67036 0.000400122C7.75156 -0.00238559 7.83257 0.00939609 7.90877 0.0350726C7.98497 0.0607492 8.05485 0.0998176 8.11444 0.150047L11.0019 2.58751C11.0644 2.64016 11.1142 2.70398 11.1483 2.77496C11.1824 2.84594 11.2 2.92255 11.2 3C11.2 3.07745 11.1824 3.15406 11.1483 3.22504C11.1142 3.29602 11.0644 3.35984 11.0019 3.41249L8.11444 5.84995C7.9941 5.9514 7.83436 6.00523 7.67036 5.9996C7.50636 5.99397 7.35153 5.92935 7.23994 5.81995C7.12835 5.71055 7.06914 5.56534 7.07533 5.41625C7.08152 5.26716 7.1526 5.12641 7.27294 5.02497L9.00543 3.56249H0.618746C0.454644 3.56249 0.297264 3.50323 0.181227 3.39774C0.0651893 3.29225 0 3.14918 0 3Z" fill="black"/>
</svg>
