<svg width="19" height="19" viewBox="0 0 19 19" fill="none" xmlns="http://www.w3.org/2000/svg">
<path fill-rule="evenodd" clip-rule="evenodd" d="M14.5 0.305176C14.8441 0.305176 15.144 0.539314 15.2276 0.873108L15.4434 1.73561C15.534 2.09832 15.7216 2.4298 15.986 2.69417C16.2504 2.95854 16.5816 3.14607 16.9443 3.23672L17.8071 3.45261C18.1409 3.53614 18.375 3.83609 18.375 4.18018C18.375 4.52426 18.1409 4.82421 17.8071 4.90774L16.9446 5.12357C16.5819 5.21422 16.2504 5.40181 15.986 5.66618C15.7216 5.93055 15.5341 6.2618 15.4435 6.62452L15.2276 7.48724C15.144 7.82104 14.8441 8.05518 14.5 8.05518C14.1559 8.05518 13.856 7.82104 13.7724 7.48724L13.5566 6.62474C13.466 6.2621 13.2785 5.93062 13.0142 5.66626C12.75 5.40194 12.419 5.21438 12.0564 5.12362C12.0564 5.1236 12.0565 5.12363 12.0564 5.12362L11.1931 4.90778C10.8592 4.82431 10.625 4.52433 10.625 4.18018C10.625 3.83602 10.8592 3.53604 11.1931 3.45257L12.0563 3.23678C12.0563 3.23677 12.0562 3.2368 12.0563 3.23678C12.4188 3.14602 12.75 2.95841 13.0142 2.6941C13.2785 2.42974 13.4659 2.09853 13.5565 1.73589L13.7724 0.873108C13.856 0.539314 14.1559 0.305176 14.5 0.305176ZM13.5613 4.18018C13.7448 4.30515 13.9169 4.44751 14.0751 4.60581C14.2331 4.7639 14.3753 4.93583 14.5 5.11907C14.6249 4.93572 14.7672 4.76369 14.9253 4.60552C15.0835 4.44733 15.2556 4.30507 15.439 4.18018C15.2556 4.05528 15.0835 3.91302 14.9253 3.75483C14.7672 3.59666 14.6249 3.42463 14.5 3.24128C14.3753 3.42452 14.2331 3.59645 14.0751 3.75454C13.9169 3.91284 13.7448 4.0552 13.5613 4.18018ZM7.00009 2.80518C7.33493 2.80521 7.62918 3.02721 7.72115 3.34917L8.39862 5.72072C8.39863 5.72076 8.39861 5.72068 8.39862 5.72072C8.53871 6.21077 8.80138 6.65716 9.16178 7.01756C9.52221 7.37799 9.96853 7.64064 10.4586 7.78072L12.8312 8.45907C13.1531 8.55112 13.375 8.84542 13.375 9.18026C13.375 9.5151 13.153 9.80935 12.831 9.90133L10.4595 10.5788C10.4594 10.5788 10.4595 10.5788 10.4595 10.5788C9.9694 10.7189 9.52301 10.9816 9.16261 11.342C8.80219 11.7024 8.53954 12.1487 8.39945 12.6388C8.39678 12.6482 8.39392 12.6575 8.39089 12.6667L7.72115 15.0112C7.62917 15.3332 7.33487 15.5552 7 15.5552C6.66513 15.5552 6.37083 15.3332 6.27885 15.0112L5.60138 12.6396C5.60137 12.6396 5.60139 12.6397 5.60138 12.6396C5.46129 12.1496 5.19862 11.7032 4.83822 11.3428C4.47779 10.9824 4.03147 10.7197 3.54138 10.5796L1.16883 9.90128C0.846885 9.80923 0.624961 9.51493 0.625 9.18009C0.625039 8.84525 0.847031 8.551 1.16899 8.45902L3.54055 7.78156C3.54058 7.78154 3.54051 7.78157 3.54055 7.78156C4.0306 7.64146 4.47699 7.37879 4.83739 7.01839C5.19781 6.65797 5.46046 6.21165 5.60055 5.72156L6.2789 3.349C6.37094 3.02706 6.66525 2.80514 7.00009 2.80518ZM6.99972 6.27559C6.78108 6.955 6.40372 7.57338 5.89805 8.07905C5.39258 8.58452 4.77449 8.96179 4.09542 9.18046C4.77482 9.39909 5.39321 9.77646 5.89888 10.2821C6.40435 10.7876 6.78161 11.4057 7.00028 12.0848C7.21892 11.4054 7.59628 10.787 8.10195 10.2813C8.60742 9.77583 9.22551 9.39857 9.90458 9.17989C9.22518 8.96126 8.60679 8.5839 8.10112 8.07822C7.59565 7.57275 7.21839 6.95467 6.99972 6.27559ZM13.25 11.5552C13.5729 11.5552 13.8595 11.7618 13.9616 12.0682L14.2898 13.0538C14.2899 13.0539 14.2898 13.0538 14.2898 13.0538C14.3451 13.2194 14.4382 13.3701 14.5616 13.4936C14.6851 13.6171 14.8357 13.7101 15.0013 13.7653L15.987 14.0936C16.2933 14.1956 16.5 14.4823 16.5 14.8052C16.5 15.1281 16.2933 15.4147 15.987 15.5167L15.0013 15.845C14.8357 15.9002 14.6851 15.9933 14.5616 16.1168C14.4382 16.2402 14.3451 16.3907 14.2899 16.5563C14.2899 16.5564 14.2899 16.5563 14.2899 16.5563L13.9616 17.5422C13.8595 17.8485 13.5729 18.0552 13.25 18.0552C12.9271 18.0552 12.6405 17.8485 12.5384 17.5422L12.2102 16.5565C12.1549 16.3908 12.0619 16.2403 11.9384 16.1168C11.8149 15.9933 11.6643 15.9002 11.4987 15.845L10.513 15.5167C10.2067 15.4147 10 15.1281 10 14.8052C10 14.4823 10.2067 14.1956 10.513 14.0936L11.4987 13.7653C11.6643 13.7101 11.8149 13.6171 11.9384 13.4936C12.0619 13.3701 12.1549 13.2195 12.2102 13.0538L12.5384 12.0682C12.6405 11.7618 12.9271 11.5552 13.25 11.5552ZM13.25 14.2635C13.1738 14.3661 13.0899 14.4633 12.999 14.5542C12.9081 14.6451 12.811 14.729 12.7084 14.8052C12.811 14.8814 12.9081 14.9652 12.999 15.0561C13.0899 15.147 13.1738 15.2442 13.25 15.3468C13.3262 15.2442 13.4101 15.147 13.501 15.0561C13.5919 14.9652 13.689 14.8814 13.7916 14.8052C13.689 14.729 13.5919 14.6451 13.501 14.5542C13.4101 14.4633 13.3262 14.3661 13.25 14.2635Z" fill="white"/>
</svg>
