<svg width="87" height="14" viewBox="0 0 87 14" fill="none" xmlns="http://www.w3.org/2000/svg">
<g clip-path="url(#clip0_187_732)">
<g clip-path="url(#clip1_187_732)">
<g clip-path="url(#clip2_187_732)">
<path fill-rule="evenodd" clip-rule="evenodd" d="M7.72055 0.400394L9.47617 4.13521L13.5708 4.6457C13.9499 4.69455 14.2273 5.0444 14.1786 5.42374C14.154 5.60862 14.0617 5.76889 13.9304 5.88106L10.9498 8.67231L11.7278 12.7279C11.8005 13.1072 11.5527 13.4719 11.1732 13.5448C11.008 13.5739 10.8427 13.5448 10.7065 13.467L7.08831 11.4782L3.47543 13.467C3.13516 13.6566 2.71204 13.5303 2.52735 13.1946C2.44449 13.0439 2.42514 12.8785 2.45445 12.7279L3.22742 8.67231L0.217653 5.84687C-0.0598561 5.5842 -0.0745113 5.14191 0.188155 4.86459C0.304833 4.73814 0.455894 4.67013 0.611277 4.65059V4.6457L4.70571 4.13521L6.46114 0.400394C6.62179 0.0503608 7.03532 -0.0954396 7.38517 0.065016C7.54074 0.137916 7.65272 0.259479 7.72055 0.400394Z" fill="url(#paint0_linear_187_732)"/>
</g>
</g>
</g>
<g clip-path="url(#clip3_187_732)">
<g clip-path="url(#clip4_187_732)">
<g clip-path="url(#clip5_187_732)">
<path fill-rule="evenodd" clip-rule="evenodd" d="M25.7206 0.400394L27.4762 4.13521L31.5708 4.6457C31.9499 4.69455 32.2273 5.0444 32.1786 5.42374C32.154 5.60862 32.0617 5.76889 31.9304 5.88106L28.9498 8.67231L29.7278 12.7279C29.8005 13.1072 29.5527 13.4719 29.1732 13.5448C29.008 13.5739 28.8427 13.5448 28.7065 13.467L25.0883 11.4782L21.4754 13.467C21.1352 13.6566 20.712 13.5303 20.5273 13.1946C20.4445 13.0439 20.4251 12.8785 20.4544 12.7279L21.2274 8.67231L18.2177 5.84687C17.9401 5.5842 17.9255 5.14191 18.1882 4.86459C18.3048 4.73814 18.4559 4.67013 18.6113 4.65059V4.6457L22.7057 4.13521L24.4611 0.400394C24.6218 0.0503608 25.0353 -0.0954396 25.3852 0.065016C25.5407 0.137916 25.6527 0.259479 25.7206 0.400394Z" fill="url(#paint1_linear_187_732)"/>
</g>
</g>
</g>
<g clip-path="url(#clip6_187_732)">
<g clip-path="url(#clip7_187_732)">
<g clip-path="url(#clip8_187_732)">
<path fill-rule="evenodd" clip-rule="evenodd" d="M43.7206 0.400394L45.4762 4.13521L49.5708 4.6457C49.9499 4.69455 50.2273 5.0444 50.1786 5.42374C50.154 5.60862 50.0617 5.76889 49.9304 5.88106L46.9498 8.67231L47.7278 12.7279C47.8005 13.1072 47.5527 13.4719 47.1732 13.5448C47.008 13.5739 46.8427 13.5448 46.7065 13.467L43.0883 11.4782L39.4754 13.467C39.1352 13.6566 38.712 13.5303 38.5273 13.1946C38.4445 13.0439 38.4251 12.8785 38.4544 12.7279L39.2274 8.67231L36.2177 5.84687C35.9401 5.5842 35.9255 5.14191 36.1882 4.86459C36.3048 4.73814 36.4559 4.67013 36.6113 4.65059V4.6457L40.7057 4.13521L42.4611 0.400394C42.6218 0.0503608 43.0353 -0.0954396 43.3852 0.065016C43.5407 0.137916 43.6527 0.259479 43.7206 0.400394Z" fill="url(#paint2_linear_187_732)"/>
</g>
</g>
</g>
<g clip-path="url(#clip9_187_732)">
<g clip-path="url(#clip10_187_732)">
<g clip-path="url(#clip11_187_732)">
<path fill-rule="evenodd" clip-rule="evenodd" d="M61.7206 0.400394L63.4762 4.13521L67.5708 4.6457C67.9499 4.69455 68.2273 5.0444 68.1786 5.42374C68.154 5.60862 68.0617 5.76889 67.9304 5.88106L64.9498 8.67231L65.7278 12.7279C65.8005 13.1072 65.5527 13.4719 65.1732 13.5448C65.008 13.5739 64.8427 13.5448 64.7065 13.467L61.0883 11.4782L57.4754 13.467C57.1352 13.6566 56.712 13.5303 56.5273 13.1946C56.4445 13.0439 56.4251 12.8785 56.4544 12.7279L57.2274 8.67231L54.2177 5.84687C53.9401 5.5842 53.9255 5.14191 54.1882 4.86459C54.3048 4.73814 54.4559 4.67013 54.6113 4.65059V4.6457L58.7057 4.13521L60.4611 0.400394C60.6218 0.0503608 61.0353 -0.0954396 61.3852 0.065016C61.5407 0.137916 61.6527 0.259479 61.7206 0.400394Z" fill="url(#paint3_linear_187_732)"/>
</g>
</g>
</g>
<g clip-path="url(#clip12_187_732)">
<g clip-path="url(#clip13_187_732)">
<g clip-path="url(#clip14_187_732)">
<path fill-rule="evenodd" clip-rule="evenodd" d="M79.7206 0.400394L81.4762 4.13521L85.5708 4.6457C85.9499 4.69455 86.2273 5.0444 86.1786 5.42374C86.154 5.60862 86.0617 5.76889 85.9304 5.88106L82.9498 8.67231L83.7278 12.7279C83.8005 13.1072 83.5527 13.4719 83.1732 13.5448C83.008 13.5739 82.8427 13.5448 82.7065 13.467L79.0883 11.4782L75.4754 13.467C75.1352 13.6566 74.712 13.5303 74.5273 13.1946C74.4445 13.0439 74.4251 12.8785 74.4544 12.7279L75.2274 8.67231L72.2177 5.84687C71.9401 5.5842 71.9255 5.14191 72.1882 4.86459C72.3048 4.73814 72.4559 4.67013 72.6113 4.65059V4.6457L76.7057 4.13521L78.4611 0.400394C78.6218 0.0503608 79.0353 -0.0954396 79.3852 0.065016C79.5407 0.137916 79.6527 0.259479 79.7206 0.400394Z" fill="url(#paint4_linear_187_732)"/>
</g>
</g>
</g>
<defs>
<linearGradient id="paint0_linear_187_732" x1="0" y1="-1.85614e-10" x2="0" y2="13.5559" gradientUnits="userSpaceOnUse">
<stop stop-color="#FBD249"/>
<stop offset="1" stop-color="#F5A623"/>
</linearGradient>
<linearGradient id="paint1_linear_187_732" x1="18" y1="-1.85614e-10" x2="18" y2="13.5559" gradientUnits="userSpaceOnUse">
<stop stop-color="#FBD249"/>
<stop offset="1" stop-color="#F5A623"/>
</linearGradient>
<linearGradient id="paint2_linear_187_732" x1="36" y1="-1.85614e-10" x2="36" y2="13.5559" gradientUnits="userSpaceOnUse">
<stop stop-color="#FBD249"/>
<stop offset="1" stop-color="#F5A623"/>
</linearGradient>
<linearGradient id="paint3_linear_187_732" x1="54" y1="-1.85614e-10" x2="54" y2="13.5559" gradientUnits="userSpaceOnUse">
<stop stop-color="#FBD249"/>
<stop offset="1" stop-color="#F5A623"/>
</linearGradient>
<linearGradient id="paint4_linear_187_732" x1="72" y1="-1.85614e-10" x2="72" y2="13.5559" gradientUnits="userSpaceOnUse">
<stop stop-color="#FBD249"/>
<stop offset="1" stop-color="#F5A623"/>
</linearGradient>
<clipPath id="clip0_187_732">
<rect width="15" height="14" fill="white"/>
</clipPath>
<clipPath id="clip1_187_732">
<rect width="15" height="14" fill="white"/>
</clipPath>
<clipPath id="clip2_187_732">
<rect width="15" height="14" fill="white"/>
</clipPath>
<clipPath id="clip3_187_732">
<rect width="15" height="14" fill="white" transform="translate(18)"/>
</clipPath>
<clipPath id="clip4_187_732">
<rect width="15" height="14" fill="white" transform="translate(18)"/>
</clipPath>
<clipPath id="clip5_187_732">
<rect width="15" height="14" fill="white" transform="translate(18)"/>
</clipPath>
<clipPath id="clip6_187_732">
<rect width="15" height="14" fill="white" transform="translate(36)"/>
</clipPath>
<clipPath id="clip7_187_732">
<rect width="15" height="14" fill="white" transform="translate(36)"/>
</clipPath>
<clipPath id="clip8_187_732">
<rect width="15" height="14" fill="white" transform="translate(36)"/>
</clipPath>
<clipPath id="clip9_187_732">
<rect width="15" height="14" fill="white" transform="translate(54)"/>
</clipPath>
<clipPath id="clip10_187_732">
<rect width="15" height="14" fill="white" transform="translate(54)"/>
</clipPath>
<clipPath id="clip11_187_732">
<rect width="15" height="14" fill="white" transform="translate(54)"/>
</clipPath>
<clipPath id="clip12_187_732">
<rect width="15" height="14" fill="white" transform="translate(72)"/>
</clipPath>
<clipPath id="clip13_187_732">
<rect width="15" height="14" fill="white" transform="translate(72)"/>
</clipPath>
<clipPath id="clip14_187_732">
<rect width="15" height="14" fill="white" transform="translate(72)"/>
</clipPath>
</defs>
</svg>
