<svg width="914" height="176" viewBox="0 0 914 176" fill="none" xmlns="http://www.w3.org/2000/svg">
<path d="M18.96 9.70999C31.7 -0.350013 49.22 -1.16001 64.47 2.56999C90.43 8.85999 112.98 25.49 129.97 45.76C150.08 70.67 165.36 102.8 160.15 135.64C158.16 146.91 152.63 157.94 143.58 165.34C125.28 180.51 98.53 177.49 78.29 168.56C48.26 155.23 24.19 129.68 10.73 99.91C-1.51 72.49 -7.01 30.89 18.96 9.70999ZM19.73 10.67C11.73 17.26 7.02 27.05 5.57 37.19C1.82 67.85 18.49 97.07 37.09 120.12C55.69 142.05 81.7 162.93 111.22 165.06C120.55 165.51 129.96 163.32 137.38 157.62C144.83 151.84 149.41 143.17 151.34 133.91C156.96 103.96 143.08 73.19 125.13 49.62C106.39 25.87 80.15 3.68999 48.72 1.73999C38.4 1.29999 27.81 4.07999 19.73 10.67Z" fill="#02FCF7"/>
<path d="M10.01 157.55C0.860007 146.89 8.21001 129.07 13.23 117.93C31.61 80.43 62.19 49.65 97.8 27.99C152.82 -4.41001 178.64 24.17 145.81 77.86C123.35 113.65 89.97 142.89 50.33 157.77C38.67 161.8 19.94 167.53 10.01 157.55ZM10.91 156.7C17.63 163.12 27.99 161.3 36.09 158.78C64.97 149.09 99.4 115.56 119.39 92.47C130.11 80.13 158.76 42.83 147.39 27.27C137.26 17.66 112.59 29.24 101.74 35C86.03 43.53 71.5 54.51 58.14 66.68C44.78 78.9 32.23 92.16 21.89 107.08C13.81 119.07 -0.319991 143.6 10.91 156.7Z" fill="#02FCF7"/>
<path d="M311.78 95.48H334.62V140.02C323.2 147.25 310.45 150.87 295.6 150.87C256.58 150.87 229.55 127.27 229.55 89.77C229.55 53.99 256.77 26.2 294.84 26.2C311.02 26.2 326.43 30.58 338.42 38.19L330.43 53.04C321.67 43.33 310.25 36.86 295.03 36.86C272.19 36.86 254.3 55.32 254.3 87.49C254.3 121.37 273.14 140.21 298.27 140.21C303.22 140.21 307.22 139.83 311.79 138.69V95.48H311.78Z" fill="black"/>
<path d="M361.66 148.02V29.06H384.88V148.02H361.66Z" fill="black"/>
<path d="M413.63 126.32C425.24 136.22 435.71 140.21 447.89 140.21C465.59 140.21 473.78 130.5 473.78 120.61C473.78 109.76 466.74 103.86 444.09 96.44C420.3 88.83 408.5 78.93 408.5 60.85C408.5 43.15 422.39 26.21 451.71 26.21C465.98 26.21 480.07 29.45 489.58 33.44L484.44 49.43C473.4 40.29 462.74 36.87 450.37 36.87C436.29 36.87 427.72 44.67 427.72 53.81C427.72 64.85 436.29 70.56 455.7 76.65C483.3 85.41 493.96 95.68 493.96 114.15C493.96 133.56 477.02 150.88 445.81 150.88C432.68 150.88 419.35 147.45 408.32 142.12L413.63 126.32Z" fill="black"/>
<path d="M556.01 29.06H579.04V105.77C579.04 138.89 563.24 150.88 540.4 150.88C523.46 150.88 512.04 143.65 505.19 133.18L516.61 119.86L519.66 126.14C524.42 136.04 530.32 140.22 538.69 140.22C549.16 140.22 556.01 132.8 556.01 116.62V29.06Z" fill="black"/>
<path d="M669.27 148.02L657.28 111.86H614.64L602.65 148.02H590.28L627.21 39.9V32.86L652.33 25.63L693.82 148.02H669.27ZM637.11 49.42H635.4L618.27 101.38H653.67L637.11 49.42Z" fill="black"/>
<path d="M785.39 149.16L724.87 55.13H723.72V148.01H711.73V30.2L734.95 28.3L794.15 120.23H795.29V29.06H807.28V147.07L785.39 149.16Z" fill="black"/>
<path d="M836.23 148.02V29.06H913.51V44.86C904.75 41.81 896.38 40.1 877.16 40.1H859.26V82.54H897.71V93.2H859.26V136.98H877.16C896.38 136.98 904.76 135.27 913.51 132.22V148.02H836.23Z" fill="black"/>
</svg>
