<svg width="100" height="100" viewBox="0 0 100 100" fill="none" xmlns="http://www.w3.org/2000/svg">
<circle cx="50" cy="50" r="50" fill="white"/>
<path d="M37.7879 33.8847C40.4018 31.8207 43.9964 31.6545 47.1252 32.4198C52.4514 33.7103 57.078 37.1223 60.5639 41.2811C64.6898 46.3919 67.8248 52.9841 66.7559 59.7219C66.3476 62.0341 65.213 64.2972 63.3562 65.8154C59.6016 68.9279 54.1133 68.3082 49.9607 66.4761C43.7994 63.7411 38.8609 58.499 36.0993 52.3911C33.5881 46.7653 32.4596 38.2302 37.7879 33.8847ZM37.9459 34.0817C36.3045 35.4338 35.3382 37.4424 35.0407 39.5228C34.2713 45.8133 37.6915 51.8084 41.5076 56.5376C45.3238 61.037 50.6603 65.321 56.7169 65.758C58.6312 65.8503 60.5618 65.401 62.0842 64.2315C63.6127 63.0456 64.5524 61.2668 64.9484 59.3669C66.1014 53.2221 63.2537 46.909 59.5708 42.0731C55.7259 37.2003 50.3423 32.6496 43.8938 32.2495C41.7764 32.1593 39.6037 32.7296 37.9459 34.0817Z" fill="#02FCF7"/>
<path d="M35.9516 64.2171C34.0743 62.03 35.5823 58.3739 36.6122 56.0883C40.3832 48.3944 46.6574 42.0792 53.9635 37.6352C65.252 30.9877 70.5495 36.8515 63.8137 47.8671C59.2056 55.2101 52.357 61.2093 44.224 64.2622C41.8318 65.0891 37.9889 66.2647 35.9516 64.2171ZM36.1362 64.0427C37.515 65.3599 39.6405 64.9865 41.3024 64.4695C47.2277 62.4814 54.2918 55.602 58.3931 50.8646C60.5925 48.3328 66.4707 40.68 64.1379 37.4875C62.0595 35.5158 56.998 37.8917 54.7719 39.0735C51.5486 40.8236 48.5675 43.0763 45.8264 45.5733C43.0853 48.0805 40.5105 50.801 38.389 53.8622C36.7312 56.3221 33.8322 61.355 36.1362 64.0427Z" fill="#02FCF7"/>
</svg>
